<?xml version="1.0" encoding="UTF-8" standalone="no"?>
<svg width="30px" height="25px" viewBox="0 0 30 25" version="1.1" xmlns="http://www.w3.org/2000/svg" xmlns:xlink="http://www.w3.org/1999/xlink">
    <!-- Generator: Sketch 3.8.3 (29802) - http://www.bohemiancoding.com/sketch -->
    <title>am-logo</title>
    <desc>Created with Sketch.</desc>
    <defs></defs>
    <g id="Page-1" stroke="none" stroke-width="1" fill="none" fill-rule="evenodd">
        <g id="SplashPage-Copy-2" transform="translate(-250.000000, -38.000000)" fill="#3F3F3F">
            <path d="M275.714286,38 C273.346858,38 271.428571,39.8433333 271.428571,42.1175 L271.428571,58.8833334 C271.428571,59.4508333 270.948571,59.9125001 270.357143,59.9125001 C269.765715,59.9125001 269.285714,59.4508333 269.285714,58.8833334 L269.285714,42.1175 C269.285714,39.8433333 267.366572,38 265,38 C262.633428,38 260.714286,39.8433333 260.714286,42.1175 L260.714286,58.8833334 C260.714286,59.4508333 260.234285,59.9125001 259.642857,59.9125001 C259.050572,59.9125001 258.571429,59.4508333 258.571429,58.8833334 L258.571429,42.1175 C258.571429,39.8433333 256.653143,38 254.285714,38 C251.919143,38 250,39.8433333 250,42.1175 L250,63 L253.214285,63 L253.214285,58.8833334 L255.357143,58.8833334 C255.357143,61.1575001 257.276286,63 259.642857,63 C262.009428,63 263.928571,61.1575001 263.928571,58.8833334 L263.928571,42.1175 C263.928571,41.5491667 264.408571,41.0883333 265,41.0883333 C265.592286,41.0883333 266.071429,41.5491667 266.071429,42.1175 L266.071429,58.8833334 C266.071429,61.1575001 267.989714,63 270.357143,63 C272.724571,63 274.642858,61.1575001 274.642858,58.8833334 L274.642858,42.1175 C274.642858,41.5491667 275.122857,41.0883333 275.714286,41.0883333 C276.305714,41.0883333 276.785715,41.5491667 276.785715,42.1175 L276.785715,63 L280,63 L280,42.1175 C280,39.8433333 278.081715,38 275.714286,38 L275.714286,38 L275.714286,38 Z M253.214285,55.7941667 L253.214285,42.1175 C253.214285,41.5491667 253.694286,41.0883333 254.285714,41.0883333 C254.877143,41.0883333 255.357143,41.5491667 255.357143,42.1175 L255.357143,55.7941667 L253.214285,55.7941667 L253.214285,55.7941667 L253.214285,55.7941667 Z" id="am-logo"></path>
        </g>
    </g>
</svg>